<svg width="40" height="40" viewBox="0 0 40 40" fill="none" xmlns="http://www.w3.org/2000/svg">
  <defs>
    <!-- Primary Teal gradient matching theme -->
    <linearGradient id="vGradient" x1="0%" y1="0%" x2="100%" y2="100%">
      <stop offset="0%" stop-color="#2EC7B7" />
      <stop offset="100%" stop-color="#26AFA1" />
    </linearGradient>
    <!-- Dark background matching theme -->
    <linearGradient id="bgGradient" x1="0%" y1="0%" x2="100%" y2="100%">
      <stop offset="0%" stop-color="#1B1E23" />
      <stop offset="100%" stop-color="#15181C" />
    </linearGradient>
  </defs>
  
  <!-- Rounded rectangle background -->
  <rect x="0" y="0" width="40" height="40" rx="8" ry="8" fill="url(#bgGradient)" />
  
  <!-- Subtle border -->
  <rect x="0.5" y="0.5" width="39" height="39" rx="7.5" ry="7.5" stroke="#2EC7B7" stroke-width="1" opacity="0.15" fill="none" />
  
  <!-- Letter V - Ahsing font centered -->
  <path 
    d="M22.23 6.97C27.42 10.11 29.51 18.39 26.33 23.74C25.33 25.44 24.55 27.11 24.05 28.66C23.85 25.52 23.39 23.04 22.65 20.64C21.76 17.73 21.34 16.53 20.45 13.78C18.51 7.82 13.98 6.77 12.00 6.77C9.99 6.77 7.51 7.51 6.00 9.68L6.66 10.41C7.90 9.06 9.87 9.21 10.80 11.42C12.35 15.06 13.20 19.63 14.83 24.59C16.30 28.93 23.23 25.36 23.23 33.23L24.20 33.23C24.20 31.25 25.36 27.07 27.61 23.62C30.17 19.67 34.00 12.54 34.00 6.97Z" 
    fill="url(#vGradient)"
  />
</svg>
